<mxfile host="app.diagrams.net" agent="Mozilla/5.0 (Windows NT 10.0; Win64; x64) AppleWebKit/537.36 (KHTML, like Gecko) Chrome/131.0.0.0 Safari/537.36 Edg/131.0.0.0" version="26.0.3">
  <diagram name="Page-1" id="edf60f1a-56cd-e834-aa8a-f176f3a09ee4">
    <mxGraphModel dx="1800" dy="917" grid="1" gridSize="10" guides="1" tooltips="1" connect="1" arrows="1" fold="1" page="1" pageScale="1" pageWidth="1100" pageHeight="850" background="none" math="0" shadow="0">
      <root>
        <mxCell id="0" />
        <mxCell id="1" parent="0" />
        <mxCell id="jkgD8pwK3HWYnTVIXUdK-4" value="" style="edgeStyle=orthogonalEdgeStyle;rounded=0;orthogonalLoop=1;jettySize=auto;html=1;" edge="1" parent="1" source="jkgD8pwK3HWYnTVIXUdK-2" target="jkgD8pwK3HWYnTVIXUdK-3">
          <mxGeometry relative="1" as="geometry" />
        </mxCell>
        <mxCell id="jkgD8pwK3HWYnTVIXUdK-2" value="Start" style="ellipse;whiteSpace=wrap;html=1;" vertex="1" parent="1">
          <mxGeometry x="300" y="30" width="120" height="80" as="geometry" />
        </mxCell>
        <mxCell id="jkgD8pwK3HWYnTVIXUdK-6" value="" style="edgeStyle=orthogonalEdgeStyle;rounded=0;orthogonalLoop=1;jettySize=auto;html=1;" edge="1" parent="1" source="jkgD8pwK3HWYnTVIXUdK-3" target="jkgD8pwK3HWYnTVIXUdK-5">
          <mxGeometry relative="1" as="geometry" />
        </mxCell>
        <mxCell id="jkgD8pwK3HWYnTVIXUdK-3" value="Enter a number" style="shape=parallelogram;perimeter=parallelogramPerimeter;whiteSpace=wrap;html=1;fixedSize=1;" vertex="1" parent="1">
          <mxGeometry x="300" y="200" width="120" height="60" as="geometry" />
        </mxCell>
        <mxCell id="jkgD8pwK3HWYnTVIXUdK-8" value="" style="edgeStyle=orthogonalEdgeStyle;rounded=0;orthogonalLoop=1;jettySize=auto;html=1;" edge="1" parent="1" source="jkgD8pwK3HWYnTVIXUdK-5" target="jkgD8pwK3HWYnTVIXUdK-7">
          <mxGeometry relative="1" as="geometry" />
        </mxCell>
        <mxCell id="jkgD8pwK3HWYnTVIXUdK-14" value="No" style="edgeLabel;html=1;align=center;verticalAlign=middle;resizable=0;points=[];" vertex="1" connectable="0" parent="jkgD8pwK3HWYnTVIXUdK-8">
          <mxGeometry x="-0.2954" relative="1" as="geometry">
            <mxPoint as="offset" />
          </mxGeometry>
        </mxCell>
        <mxCell id="jkgD8pwK3HWYnTVIXUdK-22" style="edgeStyle=orthogonalEdgeStyle;rounded=0;orthogonalLoop=1;jettySize=auto;html=1;jumpStyle=arc;" edge="1" parent="1" source="jkgD8pwK3HWYnTVIXUdK-5" target="jkgD8pwK3HWYnTVIXUdK-15">
          <mxGeometry relative="1" as="geometry">
            <Array as="points">
              <mxPoint x="230" y="370" />
              <mxPoint x="230" y="1130" />
            </Array>
          </mxGeometry>
        </mxCell>
        <mxCell id="jkgD8pwK3HWYnTVIXUdK-23" value="Yes" style="edgeLabel;html=1;align=center;verticalAlign=middle;resizable=0;points=[];" vertex="1" connectable="0" parent="jkgD8pwK3HWYnTVIXUdK-22">
          <mxGeometry x="-0.8957" y="-1" relative="1" as="geometry">
            <mxPoint as="offset" />
          </mxGeometry>
        </mxCell>
        <mxCell id="jkgD8pwK3HWYnTVIXUdK-5" value="Is&amp;nbsp;&lt;div&gt;num &amp;lt;= 1?&lt;/div&gt;" style="rhombus;whiteSpace=wrap;html=1;" vertex="1" parent="1">
          <mxGeometry x="320" y="330" width="80" height="80" as="geometry" />
        </mxCell>
        <mxCell id="jkgD8pwK3HWYnTVIXUdK-10" value="" style="edgeStyle=orthogonalEdgeStyle;rounded=0;orthogonalLoop=1;jettySize=auto;html=1;" edge="1" parent="1" source="jkgD8pwK3HWYnTVIXUdK-7" target="jkgD8pwK3HWYnTVIXUdK-9">
          <mxGeometry relative="1" as="geometry" />
        </mxCell>
        <mxCell id="jkgD8pwK3HWYnTVIXUdK-7" value="Start Loop (i = 2 to sqrt(num))" style="whiteSpace=wrap;html=1;" vertex="1" parent="1">
          <mxGeometry x="300" y="500" width="120" height="60" as="geometry" />
        </mxCell>
        <mxCell id="jkgD8pwK3HWYnTVIXUdK-27" style="edgeStyle=orthogonalEdgeStyle;rounded=0;orthogonalLoop=1;jettySize=auto;html=1;" edge="1" parent="1" source="jkgD8pwK3HWYnTVIXUdK-9" target="jkgD8pwK3HWYnTVIXUdK-11">
          <mxGeometry relative="1" as="geometry">
            <Array as="points">
              <mxPoint x="550" y="680" />
            </Array>
          </mxGeometry>
        </mxCell>
        <mxCell id="jkgD8pwK3HWYnTVIXUdK-28" value="No" style="edgeLabel;html=1;align=center;verticalAlign=middle;resizable=0;points=[];" vertex="1" connectable="0" parent="jkgD8pwK3HWYnTVIXUdK-27">
          <mxGeometry x="-0.8728" y="2" relative="1" as="geometry">
            <mxPoint as="offset" />
          </mxGeometry>
        </mxCell>
        <mxCell id="jkgD8pwK3HWYnTVIXUdK-30" value="" style="edgeStyle=orthogonalEdgeStyle;rounded=0;orthogonalLoop=1;jettySize=auto;html=1;" edge="1" parent="1" source="jkgD8pwK3HWYnTVIXUdK-9" target="jkgD8pwK3HWYnTVIXUdK-29">
          <mxGeometry relative="1" as="geometry" />
        </mxCell>
        <mxCell id="jkgD8pwK3HWYnTVIXUdK-31" value="Yes" style="edgeLabel;html=1;align=center;verticalAlign=middle;resizable=0;points=[];" vertex="1" connectable="0" parent="jkgD8pwK3HWYnTVIXUdK-30">
          <mxGeometry x="-0.0423" y="-2" relative="1" as="geometry">
            <mxPoint as="offset" />
          </mxGeometry>
        </mxCell>
        <mxCell id="jkgD8pwK3HWYnTVIXUdK-9" value="&lt;div&gt;Is&amp;nbsp;&lt;/div&gt;&lt;div&gt;num % i == 0?&amp;nbsp;&lt;/div&gt;&lt;div&gt;&lt;br&gt;&lt;/div&gt;" style="rhombus;whiteSpace=wrap;html=1;" vertex="1" parent="1">
          <mxGeometry x="310" y="630" width="100" height="99" as="geometry" />
        </mxCell>
        <mxCell id="jkgD8pwK3HWYnTVIXUdK-37" style="edgeStyle=orthogonalEdgeStyle;rounded=0;orthogonalLoop=1;jettySize=auto;html=1;" edge="1" parent="1" source="jkgD8pwK3HWYnTVIXUdK-11" target="jkgD8pwK3HWYnTVIXUdK-15">
          <mxGeometry relative="1" as="geometry">
            <Array as="points">
              <mxPoint x="540" y="1040" />
              <mxPoint x="380" y="1040" />
            </Array>
          </mxGeometry>
        </mxCell>
        <mxCell id="jkgD8pwK3HWYnTVIXUdK-11" value="End Loop (After checking up to sqrt(num))" style="whiteSpace=wrap;html=1;" vertex="1" parent="1">
          <mxGeometry x="490" y="940" width="120" height="60" as="geometry" />
        </mxCell>
        <mxCell id="jkgD8pwK3HWYnTVIXUdK-18" value="" style="edgeStyle=orthogonalEdgeStyle;rounded=0;orthogonalLoop=1;jettySize=auto;html=1;" edge="1" parent="1" source="jkgD8pwK3HWYnTVIXUdK-15" target="jkgD8pwK3HWYnTVIXUdK-17">
          <mxGeometry relative="1" as="geometry">
            <Array as="points">
              <mxPoint x="360" y="1234" />
              <mxPoint x="360" y="1234" />
            </Array>
          </mxGeometry>
        </mxCell>
        <mxCell id="jkgD8pwK3HWYnTVIXUdK-19" value="Yes" style="edgeLabel;html=1;align=center;verticalAlign=middle;resizable=0;points=[];" vertex="1" connectable="0" parent="jkgD8pwK3HWYnTVIXUdK-18">
          <mxGeometry x="-0.238" y="-1" relative="1" as="geometry">
            <mxPoint as="offset" />
          </mxGeometry>
        </mxCell>
        <mxCell id="jkgD8pwK3HWYnTVIXUdK-21" value="" style="edgeStyle=orthogonalEdgeStyle;rounded=0;orthogonalLoop=1;jettySize=auto;html=1;" edge="1" parent="1" source="jkgD8pwK3HWYnTVIXUdK-15" target="jkgD8pwK3HWYnTVIXUdK-20">
          <mxGeometry relative="1" as="geometry" />
        </mxCell>
        <mxCell id="jkgD8pwK3HWYnTVIXUdK-26" value="No" style="edgeLabel;html=1;align=center;verticalAlign=middle;resizable=0;points=[];" vertex="1" connectable="0" parent="jkgD8pwK3HWYnTVIXUdK-21">
          <mxGeometry x="-0.1912" y="-2" relative="1" as="geometry">
            <mxPoint y="-10" as="offset" />
          </mxGeometry>
        </mxCell>
        <mxCell id="jkgD8pwK3HWYnTVIXUdK-15" value="Is isPrime true?" style="rhombus;whiteSpace=wrap;html=1;" vertex="1" parent="1">
          <mxGeometry x="320" y="1084" width="80" height="80" as="geometry" />
        </mxCell>
        <mxCell id="jkgD8pwK3HWYnTVIXUdK-25" style="edgeStyle=orthogonalEdgeStyle;rounded=0;orthogonalLoop=1;jettySize=auto;html=1;" edge="1" parent="1" source="jkgD8pwK3HWYnTVIXUdK-17" target="jkgD8pwK3HWYnTVIXUdK-24">
          <mxGeometry relative="1" as="geometry" />
        </mxCell>
        <mxCell id="jkgD8pwK3HWYnTVIXUdK-17" value="Print &quot;num is a prime number.&quot;" style="shape=parallelogram;perimeter=parallelogramPerimeter;whiteSpace=wrap;html=1;fixedSize=1;" vertex="1" parent="1">
          <mxGeometry x="310" y="1254" width="120" height="60" as="geometry" />
        </mxCell>
        <mxCell id="jkgD8pwK3HWYnTVIXUdK-38" style="edgeStyle=orthogonalEdgeStyle;rounded=0;orthogonalLoop=1;jettySize=auto;html=1;" edge="1" parent="1" source="jkgD8pwK3HWYnTVIXUdK-20" target="jkgD8pwK3HWYnTVIXUdK-24">
          <mxGeometry relative="1" as="geometry">
            <Array as="points">
              <mxPoint x="520" y="1426" />
            </Array>
          </mxGeometry>
        </mxCell>
        <mxCell id="jkgD8pwK3HWYnTVIXUdK-20" value="Print &quot;num is not a prime number.&quot;" style="shape=parallelogram;perimeter=parallelogramPerimeter;whiteSpace=wrap;html=1;fixedSize=1;" vertex="1" parent="1">
          <mxGeometry x="470" y="1094" width="120" height="60" as="geometry" />
        </mxCell>
        <mxCell id="jkgD8pwK3HWYnTVIXUdK-24" value="End" style="ellipse;whiteSpace=wrap;html=1;" vertex="1" parent="1">
          <mxGeometry x="310" y="1385.5" width="120" height="80" as="geometry" />
        </mxCell>
        <mxCell id="jkgD8pwK3HWYnTVIXUdK-34" value="" style="edgeStyle=orthogonalEdgeStyle;rounded=0;orthogonalLoop=1;jettySize=auto;html=1;" edge="1" parent="1" source="jkgD8pwK3HWYnTVIXUdK-29" target="jkgD8pwK3HWYnTVIXUdK-33">
          <mxGeometry relative="1" as="geometry" />
        </mxCell>
        <mxCell id="jkgD8pwK3HWYnTVIXUdK-29" value="Set isPrime = false (Process)" style="whiteSpace=wrap;html=1;" vertex="1" parent="1">
          <mxGeometry x="300" y="810" width="120" height="60" as="geometry" />
        </mxCell>
        <mxCell id="jkgD8pwK3HWYnTVIXUdK-39" style="edgeStyle=orthogonalEdgeStyle;rounded=0;orthogonalLoop=1;jettySize=auto;html=1;" edge="1" parent="1" source="jkgD8pwK3HWYnTVIXUdK-33" target="jkgD8pwK3HWYnTVIXUdK-15">
          <mxGeometry relative="1" as="geometry" />
        </mxCell>
        <mxCell id="jkgD8pwK3HWYnTVIXUdK-33" value="Break the loop" style="whiteSpace=wrap;html=1;" vertex="1" parent="1">
          <mxGeometry x="300" y="940" width="120" height="60" as="geometry" />
        </mxCell>
      </root>
    </mxGraphModel>
  </diagram>
</mxfile>
